<svg id="Layer_5" enable-background="new 0 0 64 64" height="512" viewBox="0 0 64 64" width="512" xmlns="http://www.w3.org/2000/svg"><path d="m24 34c.34 0 .68-.06 1-.17v16.17h4 16c.55 0 1.05.22 1.41.59.37.36.59.86.59 1.41 0 1.1-.9 2-2 2h-3-18-1c-1.1 0-2-.9-2-2v-19.62l1.05.9c.54.46 1.23.72 1.95.72z" fill="#ffeaa7"/><circle cx="24" cy="58" fill="#fcd770" r="4"/><circle cx="42" cy="58" fill="#fcd770" r="4"/><path d="m43 14h-12c-1.1 0-2 .9-2 2v8c0 1.1.9 2 2 2h5.17c-.54-1.54.25-3.24 1.78-3.81l7.05-2.64v-3.55c0-1.1-.9-2-2-2z" fill="#cf9e76"/><path d="m29 38h16v12h-16z" fill="#cf9e76"/><g fill="#838f9b"><path d="m11 37-1.22.81c-1.11.74-1.78 1.99-1.78 3.33v14.86 3c0 .83-.34 1.58-.88 2.12s-1.29.88-2.12.88c-1.66 0-3-1.34-3-3v-22z"/><path d="m14 37v22c0 1.66-1.34 3-3 3-.83 0-1.58-.34-2.12-.88s-.88-1.29-.88-2.12v-3-14.86c0-1.34.67-2.59 1.78-3.33l1.22-.81z"/><path d="m53 37 1.22.81c1.11.74 1.78 1.99 1.78 3.33v14.86 3c0 .83-.34 1.58-.88 2.12s-1.29.88-2.12.88c-1.66 0-3-1.34-3-3v-22z"/><path d="m62 37v22c0 1.66-1.34 3-3 3-.83 0-1.58-.34-2.12-.88s-.88-1.29-.88-2.12v-3-14.86c0-1.34-.67-2.59-1.78-3.33l-1.22-.81z"/></g><path d="m14 26.38v10.62h-3-9v-14.42c0-1.82.74-3.46 1.93-4.65s2.83-1.93 4.65-1.93c1.56 0 3.07.56 4.26 1.57l13.51 11.5c.93 1.3.82 2.84-.07 3.88-.35.41-.79.71-1.28.88-.32.11-.66.17-1 .17-.72 0-1.41-.26-1.95-.72l-1.05-.9z" fill="#b4dd7f"/><path d="m50 24.08-9.95 3.73c-.34.13-.69.19-1.05.19-1.24 0-2.37-.78-2.81-1.95-.01-.02-.01-.03-.02-.05-.54-1.54.25-3.24 1.78-3.81l7.05-2.64 8.95-3.36c.34-.13.69-.19 1.05-.19 1.94 0 3.68.78 4.95 2.05s2.05 3.01 2.05 4.95v14h-9-3z" fill="#4fc1e9"/><path d="m35 38h4v4h-4z" fill="#fcd770"/><path d="m35 14h4v4h-4z" fill="#fcd770"/><path d="m10 9h6c0 3.87-3.13 7-7 7s-7-3.13-7-7z" fill="#f5e0cd"/><path d="m54 9h8c0 3.87-3.13 7-7 7s-7-3.13-7-7z" fill="#f5e0cd"/><path d="m14.47 5c-1.51 0-2.9.86-3.58 2.21l-.89 1.79h-8c0-3.87 3.13-7 7-7 2.38 0 4.48 1.19 5.75 3z" fill="#ff826e"/><path d="m62 9h-8l-.89-1.79c-.68-1.35-2.07-2.21-3.58-2.21h-.28c1.27-1.81 3.37-3 5.75-3 3.87 0 7 3.13 7 7z" fill="#ff826e"/><path d="m21.41 5.59c.37.36.59.86.59 1.41 0 1.1-.9 2-2 2h-4-6l.89-1.79c.68-1.35 2.07-2.21 3.58-2.21h.28 5.25c.55 0 1.05.22 1.41.59z" fill="#fc6e51"/><path d="m53.11 7.21.89 1.79h-6-4c-1.1 0-2-.9-2-2 0-.55.22-1.05.59-1.41.36-.37.86-.59 1.41-.59h5.25.28c1.51 0 2.9.86 3.58 2.21z" fill="#fc6e51"/><path d="m46 49.184v-12.184h-18v12h-2v-14.562c.383-.223.742-.491 1.037-.835 1.23-1.435 1.283-3.491.133-5.115l-13.679-11.681c-.289-.246-.597-.463-.916-.661 2.335-1.173 4.017-3.451 4.356-6.146h3.069c1.654 0 3-1.346 3-3s-1.346-3-3-3h-4.773c-1.514-1.881-3.797-3-6.227-3-4.411 0-8 3.589-8 8 0 2.947 1.606 5.521 3.985 6.909-2.37 1.282-3.985 3.791-3.985 6.671v36.42c0 2.206 1.794 4 4 4 1.2 0 2.266-.542 3-1.382.734.84 1.8 1.382 3 1.382 2.206 0 4-1.794 4-4v-30.446l5 4.286v19.16c0 .828.338 1.579.882 2.123-1.138.917-1.882 2.305-1.882 3.877 0 2.757 2.243 5 5 5s5-2.243 5-5c0-1.13-.391-2.162-1.026-3h10.051c-.634.838-1.025 1.87-1.025 3 0 2.757 2.243 5 5 5s5-2.243 5-5c0-1.195-.439-2.279-1.141-3.14 1.234-.372 2.141-1.506 2.141-2.86 0-1.302-.839-2.402-2-2.816zm-10-10.184h2v2h-2zm-6 0h4v4h6v-4h4v10h-14zm-9-32c0 .551-.449 1-1 1h-8.382l.171-.342c.511-1.023 1.539-1.658 2.683-1.658h5.528c.551 0 1 .449 1 1zm-12-4c1.375 0 2.685.481 3.737 1.319-1.17.431-2.156 1.283-2.737 2.445l-.618 1.236h-6.292c.479-2.833 2.943-5 5.91-5zm-5.91 7h11.82c-.478 2.833-2.942 5-5.91 5s-5.431-2.167-5.91-5zm1.91 51c-1.103 0-2-.897-2-2v-21h5.12c-.712.878-1.12 1.977-1.12 3.141v14.859 3c0 1.103-.897 2-2 2zm6 0c-1.103 0-2-.897-2-2v-3-14.859c0-1.005.5-1.938 1.336-2.496l.967-.645h1.697v21c0 1.103-.897 2-2 2zm2-25h-10v-13.42c0-3.077 2.503-5.58 5.58-5.58 1.323 0 2.607.473 3.616 1.331l13.407 11.409c.554.856.525 1.851-.084 2.562-.691.807-2.015.909-2.82.217l-14-12-1.302 1.519 5.603 4.802zm14 22c0 1.654-1.346 3-3 3s-3-1.346-3-3 1.346-3 3-3 3 1.346 3 3zm15 3c-1.654 0-3-1.346-3-3s1.346-3 3-3 3 1.346 3 3-1.346 3-3 3zm3-8h-22c-.551 0-1-.449-1-1v-17.539c.604.349 1.293.539 2 .539v16h21c.551 0 1 .449 1 1s-.449 1-1 1z"/><path d="m58.864 16c2.463-1.365 4.136-3.99 4.136-7 0-4.411-3.589-8-8-8-2.43 0-4.713 1.119-6.227 3h-4.773c-1.654 0-3 1.346-3 3s1.346 3 3 3h3.069c.334 2.661 1.976 4.916 4.264 6.102l-5.333 2v-2.102c0-1.654-1.346-3-3-3h-12c-1.654 0-3 1.346-3 3v8c0 1.654 1.346 3 3 3h4.541c.708 1.217 2.025 2 3.459 2 .477 0 .946-.084 1.398-.252l8.602-3.226v33.478c0 2.206 1.794 4 4 4 1.2 0 2.266-.542 3-1.382.734.84 1.8 1.382 3 1.382 2.206 0 4-1.794 4-4v-35.998c0-3.011-1.673-5.636-4.136-7.002zm2.046-8h-6.292l-.618-1.236c-.581-1.162-1.567-2.013-2.737-2.444 1.052-.839 2.362-1.32 3.737-1.32 2.967 0 5.431 2.167 5.91 5zm-17.91-1c0-.551.449-1 1-1h5.528c1.144 0 2.172.635 2.683 1.658l.171.342h-8.382c-.551 0-1-.449-1-1zm6.09 3h11.82c-.478 2.833-2.942 5-5.91 5s-5.431-2.167-5.91-5zm-13.09 5h2v2h-2zm-.987 10h-4.013c-.551 0-1-.449-1-1v-8c0-.551.449-1 1-1h3v4h6v-4h3c.551 0 1 .449 1 1v2.852l-6.405 2.402c-1.602.602-2.58 2.128-2.582 3.746zm17.987 36c-1.103 0-2-.897-2-2v-21h1.697l.967.645c.836.557 1.336 1.49 1.336 2.496v14.859 3c0 1.103-.897 2-2 2zm6 0c-1.103 0-2-.897-2-2v-3-14.859c0-1.163-.408-2.263-1.12-3.141h5.12v21c0 1.103-.897 2-2 2zm2-25h-10v-11.228l5.404-2.027-.702-1.873-16.003 6.001c-1.012.376-2.196-.172-2.572-1.172-.387-1.032.138-2.187 1.17-2.575l16.004-6.002c.224-.082.459-.124.697-.124 3.31 0 6.002 2.692 6.002 6.002z"/></svg>